<svg width="420" height="420" viewBox="0 0 420 420" fill="none" xmlns="http://www.w3.org/2000/svg" role="img" aria-labelledby="boopyTitle boopyDesc">
  <title id="boopyTitle">Boopy mascot</title>
  <desc id="boopyDesc">A friendly mascot waving hello with a transparent background.</desc>
  <path d="M70 210C70 134 131 72 207 72H213C289 72 350 134 350 210V220C350 296 289 358 213 358H207C131 358 70 296 70 220V210Z" stroke="#111111" stroke-width="8"/>
  <circle cx="160" cy="190" r="18" fill="#111111"/>
  <circle cx="260" cy="190" r="18" fill="#111111"/>
  <path d="M150 260C167 284 190 296 210 296C230 296 253 284 270 260" stroke="#111111" stroke-width="10" stroke-linecap="round"/>
  <path d="M105 155C108 130 129 112 154 112H266C291 112 312 130 315 155" stroke="#111111" stroke-width="8" stroke-linecap="round"/>
  <path d="M334 200C357 205 373 226 373 250C373 272 360 289 341 297" stroke="#111111" stroke-width="8" stroke-linecap="round"/>
  <path d="M346 226L374 210" stroke="#111111" stroke-width="8" stroke-linecap="round"/>
  <path d="M341 254L379 254" stroke="#111111" stroke-width="8" stroke-linecap="round"/>
  <path d="M346 282L374 298" stroke="#111111" stroke-width="8" stroke-linecap="round"/>
  <path d="M95 116L72 88" stroke="#111111" stroke-width="8" stroke-linecap="round"/>
  <path d="M328 116L351 88" stroke="#111111" stroke-width="8" stroke-linecap="round"/>
  <circle cx="86" cy="80" r="12" fill="#111111"/>
  <circle cx="336" cy="80" r="12" fill="#111111"/>
</svg>
