<svg width="320" height="320" viewBox="0 0 320 320" fill="none" xmlns="http://www.w3.org/2000/svg" role="img" aria-labelledby="boopyFallbackTitle boopyFallbackDesc">
  <title id="boopyFallbackTitle">Boopy mascot fallback</title>
  <desc id="boopyFallbackDesc">Minimal cheering Boopy mascot with confetti accents.</desc>
  <g opacity="0.8" stroke="#8577E5" stroke-width="5" stroke-linecap="round">
    <path d="M58 76C76 58 92 54 112 58"/>
    <path d="M212 56C234 50 252 58 266 78"/>
    <path d="M42 132C56 118 72 114 94 118"/>
    <path d="M230 118C252 114 268 118 280 132"/>
  </g>
  <path d="M94 176C94 118 133 82 160 82C187 82 226 118 226 176V216C226 252 205 274 160 274C115 274 94 252 94 216V176Z" fill="#FFFFFF" stroke="#09090B" stroke-width="8"/>
  <circle cx="140" cy="168" r="8" fill="#09090B"/>
  <circle cx="180" cy="168" r="8" fill="#09090B"/>
  <path d="M136 206C146 216 174 216 184 206" stroke="#09090B" stroke-width="8" stroke-linecap="round"/>
  <path d="M106 176L82 150" stroke="#09090B" stroke-width="8" stroke-linecap="round"/>
  <path d="M214 176L238 150" stroke="#09090B" stroke-width="8" stroke-linecap="round"/>
  <circle cx="78" cy="146" r="6" fill="#8577E5"/>
  <circle cx="242" cy="146" r="6" fill="#8577E5"/>
</svg>
